Coordinates
version=1
nRows=8
nColumns=63
inDegrees=yes

Units are S.I. units (second, meters, Newtons, ...)
If the header above contains a line with 'inDegrees', this indicates whether rotational values are in degrees (yes) or radians (no).

endheader
time	pelvis_tilt	pelvis_list	pelvis_rotation	pelvis_tx	pelvis_ty	pelvis_tz	hip_flexion_r	hip_adduction_r	hip_rotation_r	knee_angle_r	knee_angle_r_beta	ankle_angle_r	subtalar_angle_r	mtp_angle_r	hip_flexion_l	hip_adduction_l	hip_rotation_l	knee_angle_l	knee_angle_l_beta	ankle_angle_l	subtalar_angle_l	mtp_angle_l	L5_S1_Flex_Ext	L5_S1_Lat_Bending	L5_S1_axial_rotation	L4_L5_Flex_Ext	L4_L5_Lat_Bending	L4_L5_axial_rotation	L3_L4_Flex_Ext	L3_L4_Lat_Bending	L3_L4_axial_rotation	L2_L3_Flex_Ext	L2_L3_Lat_Bending	L2_L3_axial_rotation	L1_L2_Flex_Ext	L1_L2_Lat_Bending	L1_L2_axial_rotation	L1_T12_Flex_Ext	L1_T12_Lat_Bending	L1_T12_axial_rotation	Abs_r3	Abs_r2	Abs_r1	Abs_t1	Abs_t2	neck_flexion	neck_bending	neck_rotation	arm_flex_r	arm_add_r	arm_rot_r	elbow_flex_r	pro_sup_r	wrist_flex_r	wrist_dev_r	arm_flex_l	arm_add_l	arm_rot_l	elbow_flex_l	pro_sup_l	wrist_flex_l	wrist_dev_l
1.406780	-0.911866	-2.969913	105.138153	0.054675	0.952044	0.508593	11.759325	-4.101838	-10.761981	23.339021	0.407343	24.593981	-9.782484	0.000000	8.942660	1.264724	2.479427	8.876206	0.154919	31.414289	6.284083	0.000000	0.057079	-0.290729	2.193143	0.106002	-0.386669	2.330214	0.093776	-0.706878	2.330214	0.065236	-0.706878	1.919000	0.053004	-0.592854	1.781929	0.032615	-0.450339	1.644857	0.407711	-3.288784	12.197603	0.000000	0.000000	5.611244	0.086670	10.256656	84.268375	-10.962012	0.532353	90.524419	82.525703	23.927090	13.000093	96.009800	-51.329448	25.844814	101.300029	87.689444	8.957407	26.765664
1.423729	-0.829769	-3.315645	104.823388	0.058586	0.950070	0.509178	13.052738	-3.937368	-9.929273	24.645018	0.430137	25.418700	-10.218355	0.000000	10.179611	0.815277	0.433111	10.271132	0.179265	32.727796	8.734256	0.000000	0.056286	-0.306572	2.310181	0.104528	-0.407740	2.454568	0.092472	-0.745398	2.454568	0.064329	-0.745398	2.021409	0.052267	-0.625161	1.877022	0.032162	-0.474879	1.732636	0.402042	-3.467999	12.848535	0.000000	0.000000	3.869864	0.998175	12.487090	83.307887	-9.936325	-0.095167	92.270485	82.532027	22.443059	14.914407	93.816895	-52.482781	23.618996	103.696574	87.777833	8.159032	26.466421
1.440678	-0.569370	-3.581565	104.793891	0.062185	0.947885	0.509828	14.292618	-3.633479	-9.440480	25.948155	0.452881	26.216308	-10.635257	0.000000	11.522650	0.203191	-1.317497	11.863482	0.207057	34.097242	11.133839	0.000000	0.052584	-0.299055	2.379701	0.097654	-0.397744	2.528432	0.086390	-0.727124	2.528432	0.060098	-0.727124	2.082238	0.048830	-0.609834	1.933507	0.030047	-0.463237	1.784776	0.375602	-3.382976	13.235182	0.000000	0.000000	2.301595	1.757539	14.803893	82.182092	-9.170745	-0.289957	93.845541	82.771159	20.627389	16.757452	90.413270	-53.533812	20.019350	106.168495	87.914215	7.988405	26.397612
1.457627	-0.196358	-3.779628	105.056059	0.065605	0.945451	0.510504	15.469677	-3.257062	-9.279075	27.269257	0.475938	27.025100	-11.010599	0.000000	12.931685	-0.505693	-2.706473	13.610372	0.237546	35.460067	13.377984	0.000000	0.044276	-0.278582	2.416161	0.082225	-0.370515	2.567171	0.072741	-0.677345	2.567171	0.050603	-0.677345	2.114141	0.041114	-0.568085	1.963131	0.025299	-0.431524	1.812121	0.316257	-3.151380	13.437962	0.000000	0.000000	0.932262	2.340557	17.002421	81.103267	-8.738321	0.155999	94.922886	83.265719	18.587094	18.642248	86.586442	-54.644277	15.907242	108.232186	88.137974	9.169164	26.705641
1.474576	0.267314	-3.885170	105.626301	0.068802	0.942769	0.511261	16.546408	-2.837113	-9.486906	28.602486	0.499208	27.869209	-11.304516	0.000000	14.366991	-1.278904	-3.644113	15.483837	0.270244	36.779199	15.357574	0.000000	0.029078	-0.246927	2.436417	0.054001	-0.328413	2.588694	0.047773	-0.600379	2.588694	0.033234	-0.600379	2.131865	0.027002	-0.503534	1.979589	0.016615	-0.382490	1.827313	0.207703	-2.793291	13.550623	0.000000	0.000000	-0.241832	2.701825	18.846071	80.246919	-8.589758	1.360468	95.109978	84.153758	16.416302	20.719986	83.006673	-55.434517	12.205499	109.226117	88.620439	11.778356	28.038726
1.491525	0.843997	-3.877739	106.514640	0.071626	0.939828	0.512169	17.500764	-2.377894	-10.119234	29.918548	0.522177	28.768224	-11.451549	0.000000	15.823856	-2.106188	-4.037839	17.455179	0.304650	38.034759	17.001527	0.000000	0.009173	-0.199074	2.444862	0.017035	-0.264769	2.597666	0.015070	-0.484029	2.597666	0.010484	-0.484029	2.139254	0.008518	-0.405952	1.986450	0.005241	-0.308366	1.833647	0.065521	-2.251968	13.597589	0.000000	0.000000	-1.222214	2.806318	20.306533	79.682492	-8.740359	-0.198828	94.443981	89.283106	13.864419	22.957235	79.804752	-55.528329	8.815781	108.517731	90.664947	15.262890	29.521091
1.508475	1.545970	-3.784435	107.714402	0.073967	0.936605	0.513179	18.350385	-1.900434	-11.178943	31.192897	0.544419	29.728987	-11.437610	0.000000	17.318036	-2.956819	-3.834545	19.479953	0.339989	39.211853	18.257032	0.000000	-0.008834	-0.137175	2.434236	-0.016406	-0.182443	2.586376	-0.014514	-0.333527	2.586376	-0.010097	-0.333527	2.129956	-0.008203	-0.279727	1.977817	-0.005048	-0.212484	1.825677	-0.063102	-1.551751	13.538490	0.000000	0.000000	-1.984001	2.700772	21.381739	79.224610	-8.434317	2.711532	91.511520	92.021743	11.946219	24.420265	77.065899	-54.539553	8.791290	105.665231	91.928906	19.180672	30.127217
1.525424	2.406000	-3.608935	109.204817	0.075722	0.933009	0.514371	19.126345	-1.415331	-12.678032	32.424192	0.565909	30.747102	-11.244101	0.000000	18.888374	-3.806882	-2.971569	21.543729	0.376009	40.304912	19.075413	0.000000	-0.021842	-0.056916	2.397222	-0.040562	-0.075698	2.547048	-0.035883	-0.138386	2.547048	-0.024963	-0.138386	2.097569	-0.020282	-0.116063	1.947743	-0.012480	-0.088163	1.797916	-0.156012	-0.643846	13.332629	0.000000	0.000000	-2.417874	2.418191	22.243715	78.823212	-7.682349	9.341794	86.775953	92.709761	10.636654	25.334406	74.667475	-52.605149	11.773721	100.934964	92.055273	23.256190	30.283771
